<?xml version="1.0" standalone="no"?>
<!DOCTYPE svg PUBLIC "-//W3C//DTD SVG 20010904//EN"
 "http://www.w3.org/TR/2001/REC-SVG-20010904/DTD/svg10.dtd">
<svg version="1.0" xmlns="http://www.w3.org/2000/svg"
 width="512.000000pt" height="512.000000pt" viewBox="0 0 512.000000 512.000000"
 preserveAspectRatio="xMidYMid meet">

<g transform="translate(0.000000,512.000000) scale(0.100000,-0.100000)"
fill="#000000" stroke="none">
<path d="M880 4880 l0 -80 -320 0 -320 0 0 -480 0 -480 320 0 320 0 0 -456 c0
-329 3 -468 12 -498 16 -55 99 -138 154 -154 94 -28 169 -8 239 63 66 65 75
99 75 269 l0 136 80 0 80 0 0 -160 c0 -141 -2 -160 -16 -160 -108 0 -224 -125
-224 -240 0 -115 116 -240 224 -240 15 0 16 -54 16 -640 l0 -640 640 0 640 0
0 -80 0 -80 -640 0 -640 0 0 -240 0 -240 85 0 84 0 -6 -50 c-9 -78 12 -136 71
-195 103 -103 244 -101 339 5 52 58 72 119 64 190 l-6 50 969 0 969 0 -6 -50
c-9 -78 12 -136 71 -195 103 -103 244 -101 339 5 52 58 72 119 64 190 l-6 50
84 0 85 0 0 240 0 240 -640 0 -640 0 0 80 0 80 640 0 640 0 0 640 c0 612 1
640 18 640 48 0 113 34 155 80 93 103 90 228 -8 325 -47 47 -102 75 -149 75
-15 0 -16 67 -16 807 l0 808 -92 232 -93 233 -1415 0 -1415 0 -92 -233 -93
-232 0 -408 0 -407 -80 0 -80 0 0 640 0 640 -240 0 -240 0 0 -80z m320 -640
l0 -560 -80 0 -80 0 0 560 0 560 80 0 80 0 0 -560z m3293 392 l67 -167 0 -473
0 -472 -236 0 c-130 0 -234 3 -232 8 2 4 15 30 30 57 14 28 32 78 38 112 34
169 -58 346 -223 428 -63 32 -78 35 -152 35 -101 0 -192 -26 -266 -75 -28 -20
-53 -34 -54 -33 -17 22 -25 62 -25 134 0 111 -14 155 -67 214 -65 72 -151 96
-247 68 -55 -16 -138 -99 -154 -154 -18 -61 -16 -248 3 -284 l16 -30 -105 0
-104 0 -32 133 c-48 193 -72 230 -165 256 -50 14 -278 14 -327 1 -92 -26 -178
-135 -178 -227 0 -73 20 -124 70 -173 46 -46 99 -70 157 -70 l31 0 36 -147
c22 -89 49 -169 67 -200 l29 -53 -395 0 -395 0 0 472 0 473 67 167 67 168
1306 0 1306 0 67 -168z m-3613 -312 l0 -320 -240 0 -240 0 0 320 0 320 240 0
240 0 0 -320z m2375 -25 c23 -23 25 -31 25 -130 l0 -105 50 -100 c70 -140 101
-152 196 -71 66 57 159 105 221 116 101 16 218 -64 249 -173 38 -129 -39 -264
-172 -301 -26 -7 -213 -11 -550 -11 -554 0 -558 0 -631 56 -54 41 -79 99 -127
289 -54 214 -54 215 -161 215 -68 0 -75 2 -94 26 -29 37 -26 70 8 105 29 29
30 29 155 29 83 0 127 -4 132 -12 4 -6 26 -88 50 -182 33 -130 48 -175 65
-188 19 -16 47 -18 251 -18 l229 0 24 25 c34 33 31 63 -15 155 -37 74 -40 85
-40 165 0 78 2 88 25 110 15 16 36 25 55 25 19 0 40 -9 55 -25z m-1735 -855
l0 -80 -240 0 -240 0 0 80 0 80 240 0 240 0 0 -80z m3040 -320 l0 -240 -80 0
-80 0 0 160 0 160 -320 0 -320 0 0 -160 0 -160 -80 0 -80 0 0 160 0 160 -400
0 -400 0 0 -160 0 -160 -560 0 -560 0 0 240 0 240 1440 0 1440 0 0 -240z
m-3360 -55 c0 -131 -1 -137 -25 -160 -15 -16 -36 -25 -55 -25 -19 0 -40 9 -55
25 -24 23 -25 29 -25 160 l0 135 80 0 80 0 0 -135z m2240 -105 l0 -80 -240 0
-240 0 0 80 0 80 240 0 240 0 0 -80z m800 0 l0 -80 -160 0 -160 0 0 80 0 80
160 0 160 0 0 -80z m535 -265 c33 -32 33 -78 0 -110 l-24 -25 -1631 0 -1631 0
-24 25 c-16 15 -25 36 -25 55 0 19 9 40 25 55 l24 25 1631 0 1631 0 24 -25z
m-1975 -535 l0 -240 -560 0 -560 0 0 240 0 240 560 0 560 0 0 -240z m480 -480
l0 -720 -160 0 -160 0 0 720 0 720 160 0 160 0 0 -720z m1280 160 l0 -560
-560 0 -560 0 0 560 0 560 560 0 560 0 0 -560z m-1760 -320 l0 -240 -560 0
-560 0 0 240 0 240 560 0 560 0 0 -240z m1760 -800 l0 -80 -1440 0 -1440 0 0
80 0 80 1440 0 1440 0 0 -80z m-2585 -265 c50 -49 15 -135 -55 -135 -41 0 -80
39 -80 80 0 41 39 80 80 80 19 0 40 -9 55 -25z m2400 0 c50 -49 15 -135 -55
-135 -41 0 -80 39 -80 80 0 41 39 80 80 80 19 0 40 -9 55 -25z"/>
<path d="M1840 4560 l0 -80 80 0 80 0 0 80 0 80 -80 0 -80 0 0 -80z"/>
<path d="M3680 4560 l0 -80 80 0 80 0 0 80 0 80 -80 0 -80 0 0 -80z"/>
<path d="M4000 4560 l0 -80 95 0 95 0 25 -50 c24 -48 25 -56 25 -240 l0 -190
80 0 80 0 0 210 0 210 -55 110 -55 110 -145 0 -145 0 0 -80z"/>
<path d="M1920 2160 l0 -80 320 0 320 0 0 80 0 80 -320 0 -320 0 0 -80z"/>
<path d="M3600 1840 l0 -240 80 0 80 0 0 240 0 240 -80 0 -80 0 0 -240z"/>
<path d="M1920 1520 l0 -80 320 0 320 0 0 80 0 80 -320 0 -320 0 0 -80z"/>
</g>
</svg>
