<?xml version="1.0" standalone="no"?>
<!DOCTYPE svg PUBLIC "-//W3C//DTD SVG 20010904//EN"
 "http://www.w3.org/TR/2001/REC-SVG-20010904/DTD/svg10.dtd">
<svg version="1.0" xmlns="http://www.w3.org/2000/svg"
 width="530.000000pt" height="497.000000pt" viewBox="0 0 530.000000 497.000000"
 preserveAspectRatio="xMidYMid meet">

<g transform="translate(0.000000,497.000000) scale(0.100000,-0.100000)"
fill="#000000" stroke="none">
<path d="M254 4650 c-12 -4 -31 -21 -43 -36 l-21 -27 0 -2093 0 -2094 29 -32
29 -33 569 -3 c312 -2 583 0 602 3 18 4 44 17 57 30 l24 24 0 351 0 350 1160
0 1160 0 0 -350 0 -351 24 -24 c13 -13 39 -26 57 -30 19 -3 206 -5 417 -3
l384 3 29 33 29 32 0 535 0 535 53 0 c151 0 280 150 264 305 -7 69 -46 144
-98 188 -83 72 51 67 -1806 67 l-1673 0 0 935 0 935 245 0 245 0 0 -55 c0 -70
20 -109 61 -124 21 -7 139 -11 335 -11 l304 0 0 -140 c0 -150 11 -199 48 -219
12 -6 65 -11 120 -11 l98 0 34 -77 c98 -227 184 -375 259 -448 l42 -40 186 -3
c128 -2 195 0 215 9 82 34 199 225 328 537 6 14 18 22 33 22 38 0 145 59 172
94 56 73 65 110 65 268 l0 146 -62 54 c-107 93 -610 492 -673 535 -124 83
-283 151 -440 188 -156 36 -510 48 -565 20 -59 -30 -68 -98 -21 -146 l29 -29
159 0 c87 0 199 -5 248 -11 169 -21 351 -88 486 -180 66 -44 469 -367 469
-375 0 -2 -391 -4 -870 -4 l-870 0 0 285 0 285 36 0 c69 0 116 80 83 142 -16
30 -71 48 -147 48 -126 0 -162 -30 -162 -135 l0 -55 -245 0 -245 0 0 61 c0 33
-5 69 -11 81 -25 47 -41 48 -646 47 -312 0 -578 -4 -589 -9z m1056 -2155 l0
-1975 -465 0 -465 0 0 1975 0 1975 465 0 465 0 0 -1975z m680 1690 l0 -95
-240 0 -240 0 0 95 0 95 240 0 240 0 0 -95z m2110 -540 c0 -56 -4 -69 -24 -90
-13 -13 -39 -26 -57 -30 -19 -3 -281 -4 -584 -3 l-550 3 -3 93 -3 92 611 0
610 0 0 -65z m-280 -312 c0 -16 -129 -273 -162 -322 l-33 -51 -131 0 -132 0
-32 48 c-34 51 -160 303 -160 321 0 8 96 11 325 11 179 0 325 -3 325 -7z
m1041 -1522 c50 -51 30 -131 -39 -151 -26 -8 -524 -10 -1677 -8 l-1640 3 -3
93 -3 92 1666 0 1667 0 29 -29z m-1043 -438 l3 -93 -1161 0 -1160 0 0 95 0 95
1158 -2 1157 -3 3 -92z m752 -378 l0 -475 -280 0 -280 0 0 475 0 475 280 0
280 0 0 -475z"/>
<path d="M599 3201 c-59 -60 -23 -156 59 -156 73 0 117 65 87 129 -29 61 -99
74 -146 27z"/>
<path d="M988 3215 c-33 -18 -52 -72 -39 -107 16 -42 61 -71 101 -64 78 12
106 101 51 157 -33 32 -70 37 -113 14z"/>
<path d="M595 2824 c-55 -59 -17 -154 60 -154 49 0 74 15 91 56 12 29 12 39 0
68 -17 41 -42 56 -91 56 -26 0 -43 -7 -60 -26z"/>
<path d="M969 2824 c-35 -37 -33 -98 4 -130 72 -61 176 0 153 91 -17 66 -110
89 -157 39z"/>
<path d="M624 2470 c-59 -24 -72 -104 -25 -151 31 -31 64 -36 105 -18 31 15
59 70 50 103 -13 52 -82 87 -130 66z"/>
<path d="M987 2460 c-39 -31 -50 -65 -36 -107 12 -36 51 -63 94 -63 40 0 85
50 85 94 0 75 -86 121 -143 76z"/>
</g>
</svg>
