<?xml version="1.0" standalone="no"?>
<!DOCTYPE svg PUBLIC "-//W3C//DTD SVG 20010904//EN"
 "http://www.w3.org/TR/2001/REC-SVG-20010904/DTD/svg10.dtd">
<svg version="1.0" xmlns="http://www.w3.org/2000/svg"
 width="536.000000pt" height="532.000000pt" viewBox="0 0 536.000000 532.000000"
 preserveAspectRatio="xMidYMid meet">

<g transform="translate(0.000000,532.000000) scale(0.100000,-0.100000)"
fill="#000000" stroke="none">
<path d="M524 5261 c-47 -22 -80 -59 -95 -110 -6 -23 -9 -168 -7 -412 l3 -375
27 -41 c36 -55 84 -76 191 -81 86 -4 87 -5 87 -30 0 -44 40 -112 83 -140 l41
-27 679 -5 680 -5 4 -30 c8 -77 15 -95 48 -123 19 -17 51 -33 74 -37 l40 -7 3
-256 c2 -141 6 -264 10 -272 5 -10 -13 -47 -55 -110 l-62 -95 -220 0 -220 0
-5 61 c-7 84 -44 128 -117 140 -86 13 -154 -47 -163 -144 l-5 -57 -162 -3
-163 -3 0 165 c0 182 -9 227 -62 303 -16 23 -48 55 -71 71 -23 16 -210 99
-416 185 -294 122 -378 154 -393 146 -16 -8 -18 -23 -18 -112 l0 -103 -51 -34
c-216 -146 -279 -753 -115 -1105 86 -184 233 -227 344 -101 86 98 152 324 152
522 0 73 -3 85 -20 94 -15 8 -24 6 -38 -8 -15 -15 -20 -40 -25 -128 -14 -254
-113 -474 -213 -474 -59 0 -143 128 -177 270 -78 323 -18 735 124 855 77 64
159 -5 221 -189 27 -80 43 -101 72 -90 26 10 27 38 5 110 -39 126 -101 221
-165 252 -33 15 -34 17 -34 80 0 57 2 63 18 57 9 -3 165 -68 346 -143 275
-115 335 -143 367 -175 59 -59 70 -107 67 -288 l-3 -154 -130 -5 c-116 -4
-134 -8 -163 -28 -46 -34 -62 -70 -62 -147 0 -127 47 -176 175 -185 l80 -5 5
-291 5 -291 35 -68 c40 -78 81 -116 108 -99 28 18 25 40 -12 93 -32 48 -63
118 -54 126 2 2 144 5 316 7 349 3 328 8 292 -70 -33 -72 -69 -110 -136 -143
-62 -31 -65 -31 -190 -28 -112 4 -128 2 -138 -13 -15 -25 3 -50 44 -61 19 -5
84 -7 145 -5 94 3 118 7 166 29 76 36 129 86 170 161 l34 63 5 295 5 295 58 3
57 3 0 -394 0 -395 -28 -53 c-20 -39 -41 -62 -77 -84 l-48 -30 -376 -5 -376
-5 -3 -26 c-6 -50 -1 -50 395 -47 350 3 370 4 414 24 66 31 114 78 146 142
l28 57 3 408 3 407 144 0 144 0 36 -63 c32 -58 35 -71 35 -140 l0 -77 -48 0
c-69 0 -130 -35 -162 -91 l-25 -44 -3 -402 c-2 -279 1 -416 9 -445 21 -79 104
-138 197 -138 l32 0 0 -70 0 -70 -75 0 c-92 0 -104 -13 -100 -105 1 -33 1 -63
-1 -67 -3 -4 -23 2 -47 12 -51 24 -147 26 -207 5 -103 -36 -180 -146 -180
-255 0 -63 18 -126 49 -169 l20 -28 -30 -29 c-80 -76 -106 -217 -59 -317 31
-66 109 -133 178 -153 177 -52 355 85 354 272 0 57 -10 89 -50 167 -2 4 44 7
103 7 l106 0 87 -90 87 -90 441 0 c329 0 443 3 452 12 18 18 14 46 -7 58 -13
6 -167 10 -433 10 l-413 0 -90 90 -90 90 -180 1 c-99 1 -191 4 -205 8 -51 14
-31 115 30 146 22 11 64 15 173 15 98 0 147 4 155 12 7 7 12 42 12 85 l0 73
1130 0 1130 0 0 -73 c0 -43 5 -78 12 -85 7 -7 31 -12 55 -12 54 0 88 -16 102
-47 11 -24 16 -173 5 -173 -3 0 -20 11 -37 24 -72 53 -187 62 -272 22 -55 -25
-119 -90 -141 -142 l-14 -34 -355 0 c-344 0 -355 -1 -365 -20 -8 -14 -8 -26 0
-40 10 -19 21 -20 359 -20 l348 0 12 -52 c25 -110 93 -184 199 -214 136 -40
291 40 336 174 22 63 23 456 2 506 -18 44 -76 86 -126 93 l-40 6 0 872 0 873
79 139 79 138 59 6 c102 10 154 47 181 128 28 82 1 157 -47 131 -16 -8 -21
-20 -21 -50 0 -21 -4 -50 -10 -64 -13 -35 -66 -66 -112 -66 -34 0 -38 3 -38
25 0 37 -23 77 -102 183 l-70 93 11 42 c9 31 11 285 9 949 -3 899 -3 907 -24
935 -11 15 -36 36 -55 45 -32 17 -107 18 -1142 18 -1201 0 -1144 3 -1197 -54
-24 -26 -25 -35 -28 -157 l-4 -129 -25 0 c-32 0 -107 -43 -119 -67 -5 -10 -11
-180 -14 -378 l-5 -360 -514 -3 c-487 -2 -513 -1 -506 15 5 10 13 37 19 60
l10 41 191 4 c152 3 196 7 220 20 39 21 71 56 84 91 15 39 15 775 0 814 -15
40 -48 73 -94 94 -37 17 -75 19 -550 19 -475 0 -513 -2 -551 -19z m1076 -76
c44 -23 50 -43 50 -164 l0 -111 -72 0 -73 0 -59 85 c-77 111 -83 111 -170 0
l-66 -85 -138 0 c-75 0 -143 -4 -150 -9 -7 -4 -24 -50 -37 -100 -13 -51 -26
-95 -28 -98 -3 -2 -26 31 -50 74 -88 153 -158 253 -178 253 -10 0 -41 -13 -67
-30 -27 -16 -52 -30 -56 -30 -3 0 -6 34 -6 76 0 85 18 128 60 143 14 5 239 10
518 10 421 1 497 -1 522 -14z m3131 -16 c14 -14 19 -30 17 -52 l-3 -32 -465
-3 c-423 -2 -466 -4 -477 -19 -10 -13 -13 -161 -13 -659 0 -571 2 -644 16
-658 14 -14 71 -16 480 -16 l464 0 0 -188 c0 -154 -3 -192 -16 -210 l-15 -22
-1111 0 c-1020 0 -1113 1 -1130 17 -16 14 -18 35 -18 200 l0 183 539 0 c477 0
541 2 555 16 19 18 19 20 6 45 -10 18 -27 19 -555 19 l-545 0 0 680 c0 667 0
680 20 700 20 20 33 20 1125 20 1102 0 1105 0 1126 -21z m19 -764 l0 -595
-437 2 -438 3 -3 593 -2 592 440 0 440 0 0 -595z m-3344 508 c58 -85 55 -83
155 -83 l89 0 0 -215 c0 -247 -5 -267 -68 -285 -25 -8 -194 -10 -530 -8 l-494
3 -29 33 -29 32 0 239 0 239 48 31 c27 17 54 31 60 31 14 0 53 -61 157 -242
77 -136 101 -162 130 -138 7 6 28 71 46 145 l33 134 140 3 140 3 51 67 c27 37
53 67 56 67 3 1 23 -24 45 -56z m974 -528 l0 -465 -27 6 c-56 13 -54 -3 -53
460 0 424 0 429 21 447 12 9 30 17 40 17 18 0 19 -16 19 -465z m-1240 -162 c0
-29 -38 -83 -66 -93 -14 -6 -64 -10 -111 -10 -83 0 -86 1 -119 34 -21 21 -34
44 -34 60 l0 26 165 0 c150 0 165 -2 165 -17z m588 -1009 c18 -12 22 -25 22
-65 l0 -49 -60 0 -60 0 0 45 c0 72 47 105 98 69z m3076 -63 c66 -83 96 -130
96 -153 0 -17 -40 -18 -666 -20 -623 -3 -668 -4 -678 -20 -8 -13 -8 -23 0 -35
10 -17 55 -18 667 -21 l655 -2 -65 -115 -65 -115 -638 0 c-545 0 -639 -2 -650
-15 -13 -16 -5 -54 13 -57 7 0 17 -2 22 -3 6 -2 286 -3 623 -4 l612 -1 0 -215
0 -215 -1130 0 -1130 0 0 215 0 215 330 0 c318 0 331 1 350 20 16 16 18 25 10
40 -10 19 -24 20 -361 22 l-351 3 -71 124 c-95 164 -95 173 -1 316 l69 105
1152 0 1152 0 55 -69z m-2816 -152 c38 -40 38 -114 -1 -156 l-20 -23 -527 0
c-518 0 -528 0 -554 21 -23 18 -26 28 -26 77 0 43 5 61 22 79 l21 23 533 0
c526 0 533 0 552 -21z m238 -36 c0 -40 7 -71 22 -100 l22 -43 -95 0 -95 0 7
28 c5 15 8 47 8 72 0 25 -3 57 -8 73 l-7 27 72 0 73 0 1 -57z m-476 -438 c0
-118 1 -218 3 -222 1 -5 -141 -9 -315 -11 l-318 -3 0 226 0 225 315 0 315 0 0
-215z m640 -625 l0 -480 -37 0 c-54 0 -100 31 -113 77 -8 26 -10 162 -8 429 3
376 4 393 23 414 26 28 51 39 98 39 l37 1 0 -480z m2340 -60 l0 -240 -1130 0
-1130 0 0 240 0 240 1130 0 1130 0 0 -240z m-2 -557 l-3 -238 -1127 -3 -1128
-2 0 240 0 240 1130 0 1130 0 -2 -237z m-2336 -288 l-3 -125 -33 0 c-28 0 -34
5 -45 37 -13 34 -22 199 -12 209 2 2 25 4 50 4 l46 0 -3 -125z m-238 -38 c21
-12 50 -37 64 -54 l25 -33 -47 0 c-113 0 -205 -85 -206 -191 0 -33 -3 -37 -31
-43 -38 -7 -52 2 -78 58 -49 100 0 235 99 275 46 18 132 13 174 -12z m-48
-418 c126 -60 143 -248 31 -333 -83 -64 -187 -56 -262 19 -103 102 -68 270 66
324 42 17 120 12 165 -10z m2681 10 c68 -25 123 -109 123 -185 0 -170 -200
-263 -327 -151 -140 123 -61 345 124 347 28 0 64 -5 80 -11z"/>
<path d="M2579 4904 c-6 -17 -9 -199 -7 -496 3 -404 5 -470 18 -478 9 -6 226
-10 537 -10 461 0 523 2 537 16 14 14 16 72 16 493 0 358 -3 480 -12 489 -9 9
-144 12 -545 12 l-533 0 -11 -26z m1021 -479 l0 -425 -472 2 -473 3 -2 423 -2
422 474 0 475 0 0 -425z"/>
<path d="M2777 3529 c-23 -13 -22 -56 2 -69 25 -13 67 19 58 43 -9 24 -40 37
-60 26z"/>
<path d="M3477 3528 c-23 -13 -22 -55 3 -68 28 -15 65 22 51 49 -13 24 -33 31
-54 19z"/>
<path d="M2591 3512 c-13 -25 5 -52 34 -52 13 0 28 8 34 17 13 25 -5 53 -34
53 -13 0 -29 -8 -34 -18z"/>
<path d="M2941 3517 c-25 -31 21 -77 54 -54 26 20 16 61 -16 65 -14 2 -31 -3
-38 -11z"/>
<path d="M3117 3524 c-14 -14 -7 -54 12 -64 28 -15 71 21 55 47 -11 19 -54 29
-67 17z"/>
<path d="M3291 3516 c-7 -8 -10 -24 -6 -36 5 -17 13 -20 38 -18 28 3 32 7 32
33 0 25 -4 31 -26 33 -14 2 -31 -4 -38 -12z"/>
<path d="M3641 3516 c-17 -20 -6 -52 20 -59 25 -7 51 19 47 47 -4 26 -49 34
-67 12z"/>
<path d="M4034 4890 c-71 -35 -84 -73 -84 -242 0 -148 5 -168 42 -168 27 0 38
32 38 114 l0 76 75 0 75 0 0 -321 c0 -190 -4 -328 -10 -339 -25 -47 -123 -38
-135 12 -3 13 -6 68 -8 122 -2 82 -5 101 -19 110 -13 8 -23 8 -35 0 -15 -9
-18 -29 -21 -130 -2 -104 0 -123 18 -152 60 -97 210 -97 270 0 19 31 20 51 20
428 0 451 1 446 -80 488 -55 27 -93 28 -146 2z m120 -81 c14 -11 26 -29 26
-40 0 -17 -8 -19 -75 -19 -84 0 -95 11 -50 55 30 30 64 32 99 4z"/>
<path d="M4424 4890 c-25 -13 -49 -35 -62 -59 -22 -38 -22 -47 -22 -432 0
-376 1 -396 20 -427 60 -97 210 -97 270 0 19 31 20 48 18 308 l-3 275 -24 3
c-48 7 -51 -11 -51 -285 0 -240 -1 -254 -20 -273 -12 -12 -33 -20 -55 -20 -22
0 -43 8 -55 20 -19 19 -20 33 -20 345 l0 325 109 0 c123 0 121 -1 121 78 0 65
-27 112 -80 140 -55 27 -93 28 -146 2z m120 -81 c14 -11 26 -29 26 -40 0 -17
-8 -19 -75 -19 -84 0 -95 11 -50 55 30 30 64 32 99 4z"/>
<path d="M2490 2965 c-15 -19 -4 -52 21 -60 38 -12 65 35 37 63 -16 16 -43 15
-58 -3z"/>
<path d="M2673 2973 c-18 -7 -16 -48 2 -63 17 -14 51 -5 59 16 14 35 -23 63
-61 47z"/>
<path d="M2842 2968 c-32 -32 18 -87 53 -58 28 23 12 70 -25 70 -9 0 -21 -5
-28 -12z"/>
<path d="M2910 2395 c-10 -12 -10 -21 -2 -40 l12 -25 663 0 c502 0 666 3 675
12 17 17 15 55 -4 62 -9 3 -312 6 -674 6 -578 0 -659 -2 -670 -15z"/>
<path d="M2916 1854 c-19 -19 -20 -25 -3 -47 11 -16 61 -17 682 -15 l670 3 3
23 c8 54 33 52 -679 52 -584 0 -659 -2 -673 -16z"/>
<path d="M2912 1308 c-18 -18 -15 -35 10 -52 19 -13 105 -15 668 -16 696 0
686 -1 678 51 l-3 24 -670 3 c-514 2 -674 -1 -683 -10z"/>
<path d="M2604 762 c-36 -25 -21 -56 77 -154 l47 -48 810 0 811 0 25 23 c43
38 106 121 106 139 0 24 -35 41 -57 29 -10 -5 -36 -32 -58 -60 l-40 -51 -780
0 -781 0 -66 65 c-65 65 -74 71 -94 57z"/>
</g>
</svg>
