<?xml version="1.0" standalone="no"?>
<!DOCTYPE svg PUBLIC "-//W3C//DTD SVG 20010904//EN"
 "http://www.w3.org/TR/2001/REC-SVG-20010904/DTD/svg10.dtd">
<svg version="1.0" xmlns="http://www.w3.org/2000/svg"
 width="165.000000pt" height="136.000000pt" viewBox="0 0 165.000000 136.000000"
 preserveAspectRatio="xMidYMid meet">

<g transform="translate(0.000000,136.000000) scale(0.100000,-0.100000)"
fill="#000000" stroke="none">
<path d="M245 1138 c-45 -24 -45 -22 -45 -439 0 -386 1 -397 21 -423 l20 -26
236 0 c181 0 234 -3 231 -12 -3 -7 -26 -20 -52 -30 -56 -20 -75 -41 -76 -85
l0 -33 270 0 270 0 0 33 c0 46 -17 64 -79 85 -106 36 -80 42 176 42 237 0 240
0 261 23 22 23 22 26 22 426 l0 402 -25 24 -24 25 -593 0 c-410 -1 -599 -4
-613 -12z m1213 -432 c1 -286 -1 -403 -9 -412 -9 -11 -62 -14 -260 -14 l-249
0 0 -23 c0 -36 27 -66 73 -78 48 -13 67 -25 67 -45 0 -12 -41 -14 -230 -14
-189 0 -230 2 -230 14 0 18 16 29 71 50 47 17 80 61 64 85 -4 7 -89 11 -249
11 -175 0 -245 3 -254 12 -17 17 -17 789 0 806 9 9 153 12 608 10 l595 -3 3
-399z"/>
<path d="M277 1038 c-16 -12 -17 -42 -15 -348 l3 -335 448 0 449 0 24 28 24
28 0 299 0 299 -26 20 c-26 21 -37 21 -458 21 -330 0 -436 -3 -449 -12z m891
-327 c2 -208 -1 -298 -9 -307 -9 -12 -89 -14 -440 -14 l-429 0 0 303 c0 167 3
307 7 310 3 4 200 6 437 5 l431 -3 3 -294z"/>
<path d="M976 919 c-8 -12 -22 -63 -32 -115 -18 -98 -27 -103 -38 -22 -8 52
-24 71 -57 66 -18 -2 -27 -17 -44 -68 l-22 -65 -72 -5 c-65 -4 -74 -8 -86 -30
-17 -31 -19 -26 -39 98 -16 98 -27 122 -56 122 -24 0 -33 -14 -65 -102 l-27
-77 -62 -3 c-46 -2 -61 -7 -61 -18 0 -12 15 -15 75 -15 l74 0 31 87 c16 49 33
88 36 88 3 0 16 -64 29 -142 12 -79 29 -149 36 -157 14 -15 20 -4 55 87 8 20
15 22 78 22 43 0 72 5 79 13 5 6 17 38 26 71 10 32 20 55 24 51 4 -3 16 -54
27 -113 29 -152 41 -146 81 38 40 187 39 185 53 115 38 -182 33 -170 71 -173
39 -3 66 10 56 27 -4 6 -20 11 -35 11 -27 0 -28 2 -46 101 -10 56 -25 108 -33
115 -19 20 -39 17 -56 -7z"/>
<path d="M1319 1038 c-16 -5 -32 -22 -39 -39 -11 -26 -10 -34 7 -57 41 -56
123 -33 123 33 0 49 -44 79 -91 63z m50 -42 c16 -19 -4 -59 -26 -54 -26 5 -39
34 -24 52 17 20 35 20 50 2z"/>
<path d="M1298 843 c-37 -44 -27 -93 24 -114 25 -10 33 -9 56 8 33 25 41 76
16 104 -22 24 -76 25 -96 2z m66 -29 c20 -19 20 -28 1 -44 -30 -25 -70 15 -45
45 16 19 25 19 44 -1z"/>
<path d="M1299 662 c-45 -37 -16 -122 41 -122 31 0 70 39 70 71 0 59 -64 88
-111 51z m75 -38 c8 -21 -11 -44 -35 -44 -19 0 -35 33 -24 50 10 16 52 12 59
-6z"/>
<path d="M1299 482 c-47 -39 -16 -122 47 -122 57 0 85 80 42 120 -27 25 -59
26 -89 2z m70 -36 c17 -20 2 -46 -25 -46 -26 0 -40 20 -30 45 7 19 40 20 55 1z"/>
</g>
</svg>
